<svg width="978" height="699" viewBox="0 0 978 699" fill="none" xmlns="http://www.w3.org/2000/svg">
<path d="M0 348.986C0 156.246 156.246 0 348.986 0V0C541.725 0 697.971 156.246 697.971 348.986V348.986C697.971 541.725 541.725 697.971 348.986 697.971V697.971C156.246 697.971 0 541.725 0 348.986V348.986Z" fill="#2EAE63"/>
<path fill-rule="evenodd" clip-rule="evenodd" d="M8.41808 348.986C8.41808 537.076 160.895 689.553 348.986 689.553C537.076 689.553 689.553 537.076 689.553 348.986C689.553 160.895 537.076 8.41808 348.986 8.41808C160.895 8.41808 8.41808 160.895 8.41808 348.986ZM348.986 0C156.246 0 0 156.246 0 348.986C0 541.725 156.246 697.971 348.986 697.971C541.725 697.971 697.971 541.725 697.971 348.986C697.971 156.246 541.725 0 348.986 0Z" fill="black"/>
<path d="M386.752 445.388L388.375 402.933H343.216L329.966 445.388H278.318L347.813 250.692H437.049L438.131 445.388H386.752ZM375.666 298.014L354.303 366.698H389.727L392.702 298.014H375.666Z" fill="white"/>
<path d="M537.686 398.066L589.064 250.692H641.794L567.972 445.388H481.441L479.277 250.692H532.278L531.467 398.066H537.686Z" fill="white"/>
<path d="M768.736 445.388H632.989L667.331 250.692H803.078L795.506 292.876H708.434L702.214 329.382H774.144L766.572 371.566H694.643L689.235 403.204H776.307L768.736 445.388Z" fill="white"/>
<path d="M868.297 449.174C842.518 449.174 824.671 443.585 814.756 432.408C807.906 424.476 804.48 413.389 804.48 399.148C804.48 393.018 805.111 386.438 806.373 379.408L817.46 317.213C825.573 271.604 854.867 248.799 905.344 248.799C926.256 248.799 942.12 253.306 952.936 262.32C963.753 271.153 969.161 283.322 969.161 298.825C969.161 306.036 968.079 313.247 965.916 320.458C963.933 327.489 961.95 332.717 959.967 336.142L956.992 341.55H909.13C915.079 334.7 918.053 324.965 918.053 312.346C918.053 305.676 916.341 300.448 912.915 296.662C909.49 292.696 904.442 290.713 897.772 290.713C879.565 290.713 868.748 300.808 865.323 320.999L855.859 375.622C854.957 380.309 854.507 384.906 854.507 389.413C854.507 401.311 861.627 407.26 875.869 407.26C892.995 407.26 903.271 397.615 906.696 378.326H955.37L954.018 386.168C946.807 428.172 918.233 449.174 868.297 449.174Z" fill="white"/>
<path fill-rule="evenodd" clip-rule="evenodd" d="M378.006 453.805L379.628 411.351H349.407L336.157 453.805H266.374L341.879 242.273H445.42L446.595 453.805H378.006ZM343.216 402.933H388.374L386.752 445.387H438.13L437.048 250.691H347.813L278.317 445.387H329.966L343.216 402.933ZM531.466 398.065H537.686L589.064 250.691H641.794L567.972 445.387H481.44L479.277 250.691H532.277L531.466 398.065ZM540.063 365.675L583.083 242.273H653.989L573.783 453.805H473.115L470.765 242.273H540.742L540.063 365.675ZM775.777 453.805H622.956L660.268 242.273H813.141L802.547 301.293H715.538L712.187 320.963H784.207L773.613 379.983H701.743L699.213 394.785H786.37L775.777 453.805ZM689.234 403.203L694.642 371.565H766.572L774.143 329.381H702.214L708.433 292.875H795.506L803.077 250.691H667.331L632.989 445.387H768.735L776.306 403.203H689.234ZM808.421 437.952L808.384 437.91C799.805 427.975 796.062 414.681 796.062 399.147C796.062 392.445 796.751 385.363 798.087 377.92L809.172 315.738C809.172 315.737 809.172 315.736 809.172 315.735C813.499 291.411 823.676 272.235 840.344 259.259C856.921 246.354 878.899 240.38 905.343 240.38C927.282 240.38 945.382 245.083 958.292 255.825C971.277 266.445 977.578 281.124 977.578 298.824C977.578 306.867 976.373 314.87 973.998 322.809C971.975 329.972 969.788 335.949 967.301 340.273L961.969 349.967H890.669L902.773 336.03C906.952 331.217 909.634 323.726 909.634 312.345C909.634 307.106 908.312 304.121 906.672 302.309L906.607 302.237L906.544 302.163C905.134 300.531 902.713 299.13 897.772 299.13C890.283 299.13 885.256 301.163 881.747 304.438C878.121 307.822 875.142 313.444 873.622 322.406L873.617 322.435L864.139 377.135L864.124 377.211C863.318 381.405 862.924 385.469 862.924 389.412C862.924 393.626 864.113 395.392 865.244 396.337C866.664 397.524 869.713 398.841 875.868 398.841C882.777 398.841 887.403 396.943 890.659 393.888C894.044 390.71 896.89 385.393 898.407 376.853L899.64 369.907H965.363L962.314 387.592C962.314 387.592 962.314 387.591 962.314 387.592C958.419 410.28 948.55 428.16 932.164 440.204C915.949 452.123 894.347 457.591 868.297 457.591C841.767 457.591 820.813 451.921 808.458 437.994L808.421 437.952ZM955.369 378.325L954.017 386.167C953.984 386.36 953.951 386.552 953.917 386.743C946.544 428.363 918.004 449.173 868.297 449.173C842.518 449.173 824.67 443.584 814.755 432.407C807.905 424.475 804.48 413.389 804.48 399.147C804.48 393.018 805.111 386.438 806.373 379.407L817.46 317.212C825.572 271.603 854.866 248.798 905.343 248.798C926.255 248.798 942.119 253.305 952.935 262.319C963.752 271.152 969.16 283.321 969.16 298.824C969.16 306.035 968.078 313.246 965.915 320.457C963.932 327.488 961.949 332.716 959.966 336.141L956.992 341.549H909.129C911.248 339.109 912.99 336.303 914.354 333.131C916.82 327.398 918.052 320.469 918.052 312.345C918.052 305.675 916.34 300.447 912.915 296.661C909.489 292.695 904.442 290.712 897.772 290.712C879.564 290.712 868.747 300.807 865.322 320.998L855.858 375.621C854.957 380.308 854.506 384.905 854.506 389.412C854.506 401.31 861.627 407.259 875.868 407.259C892.994 407.259 903.27 397.615 906.695 378.325H955.369ZM354.303 366.698H389.726L392.701 298.013H375.665L354.303 366.698ZM381.863 306.431L365.737 358.28H381.665L383.91 306.431H381.863Z" fill="black"/>
</svg>
